<?xml version="1.0" encoding="utf-8"?>
<!-- Generator: Adobe Illustrator 19.2.1, SVG Export Plug-In . SVG Version: 6.00 Build 0)  -->
<svg version="1.1" id="layer" xmlns="http://www.w3.org/2000/svg" xmlns:xlink="http://www.w3.org/1999/xlink" x="0px" y="0px"
	 viewBox="0 0 652 652" style="enable-background:new 0 0 652 652;" xml:space="preserve">
<style type="text/css">
	.st0{fill:#2A3B47;}
	.st1{fill:#1087D8;}
</style>
<path class="st0" d="M190,288.4l-0.2,0.1v31.9h-30.3v-31.9l-0.2-0.1c-4.5-0.9-8.9-0.9-13.4,0l-0.2,0.1v73.4l0.2,0.1
	c2.2,0.4,4.4,0.7,6.6,0.7s4.4-0.2,6.7-0.7l0.2-0.1v-29.8h30.3v29.8l0.2,0.1c4.4,0.9,8.9,0.9,13.4,0l0.2-0.1v-73.4l-0.2-0.1
	C198.9,287.5,194.4,287.5,190,288.4L190,288.4z M236.9,309c-15.9,0-25.3,10-25.3,26.8c0,8.7,2,15.6,6,20.4
	c4.4,5.2,10.9,7.9,19.5,7.9c14.6,0,22.1-8.7,23.1-17.4v-0.2l-0.2-0.1c-3.7-1.2-7.1-1.5-11.2-0.9h-0.1v0.1c-0.9,5.1-5.1,8.2-11.4,8.2
	c-8.7,0-13-4.8-13.1-14.6H261V339c1.1-9.7-0.9-17.6-5.6-22.9C251.1,311.5,244.7,309,236.9,309L236.9,309z M236.8,318.5
	c3.6,0,6.7,1.1,8.8,3.4c2.1,2.3,3.2,5.7,3,9.8h-24.4C224.4,323.3,229,318.5,236.8,318.5z M269.9,288.4l-0.2,0.1v73.4l0.2,0.1
	c2.1,0.4,4.1,0.7,6.3,0.7c2.1,0,4.2-0.2,6.3-0.7l0.2-0.1v-73.4l-0.2-0.1C278.4,287.4,274.1,287.5,269.9,288.4L269.9,288.4z
	 M318.9,309c-5.5,0-11.3,2.1-16.8,6.2l-0.8-3.9l-0.1-0.1c-3.1-0.9-5.7-0.9-8.8,0l-0.1,0.1v73.1l0.2,0.1c2.1,0.4,4.1,0.7,6.3,0.7
	s4.2-0.2,6.3-0.7l0.2-0.1V360c4.4,2.8,9,4.1,14.2,4.1c14.4,0,23.1-10.2,23.1-27.4C342.4,319.2,333.9,309,318.9,309L318.9,309z
	 M305,323.5c3.9-2.6,7.4-3.9,11.3-3.9c8.8,0,13.6,6.1,13.6,17.2c0,10.9-4.7,16.7-13.7,16.7c-3.9,0-7.5-1.2-11.1-3.8L305,323.5
	L305,323.5z M397.6,322.4c-2.2-0.9-4.2-1.6-6.1-2.2c-10-3.6-16-5.7-16.1-11.1c-0.1-2.5,0.7-4.6,2.4-6.4c2.5-2.6,6.7-3.9,11.9-3.9
	c5.1,0,9,1.4,11.4,3.9c2,2.1,2.9,5.1,2.6,8.7v0.2l0.2,0.1c4.4,0.9,8.7,0.8,13.4-0.3l0.2-0.1v-0.2c0.3-6.1-1.6-11.5-5.4-15.5
	c-4.7-5-12.3-7.6-21.9-7.7h-0.3c-17.8,0-28.5,7.9-28.6,21.2c-0.1,13.2,12.1,17.6,19.4,20.2l1.1,0.4c2.4,0.9,4.7,1.6,6.7,2.4
	c9.9,3.4,15.8,5.5,16,10.7c0.1,2.7-0.7,4.9-2.4,6.6c-2.4,2.4-6.5,3.6-12,3.6c-6.1,0-10.7-1.6-13.4-4.4c-1.9-2.1-2.7-4.9-2.4-8.1
	v-0.2l-0.2-0.1c-4.4-0.9-8.9-0.8-13.4,0.2l-0.1,0.1v0.2c-0.4,5.9,1.4,11.2,5.3,15.3c5.1,5.5,13.6,8.4,24.4,8.3
	c10.6,0,28.1-2.9,28.3-21.4C418.4,330.3,407.8,326.3,397.6,322.4L397.6,322.4z M450.5,319.7c8.8,0,10.9,5.7,11.3,9.1v0.2h0.2
	c4.1,0.6,7.9,0.4,11.6-0.7l0.2-0.1v-0.2c-0.4-5.1-2.6-9.8-6.2-13.1c-4.1-3.8-10.1-5.9-17.1-5.9c-16.7,0-25.9,9.8-25.9,27.6
	c0,17.7,9.1,27.5,25.7,27.5c7.1,0,13.1-2.1,17.4-6c3.5-3.3,5.6-7.7,6.1-12.5v-0.2l-0.2-0.1c-3.5-1.2-7.4-1.4-11.6-0.7h-0.1v0.1
	c-1.1,8-8.9,8.6-11.3,8.6c-9,0-13.2-5.4-13.2-16.9C437.3,325,441.5,319.7,450.5,319.7L450.5,319.7z M505.5,309
	c-16.4,0-25.5,9.8-25.5,27.6c0,17.7,9.1,27.5,25.5,27.5s25.5-9.8,25.5-27.5C531,318.8,521.9,309,505.5,309z M518.6,336.7
	c0,11.4-4.3,16.9-13.1,16.9c-8.8,0-13.1-5.5-13.1-16.9c0-11.6,4.1-17,13.1-17C514.3,319.7,518.6,325.2,518.6,336.7z M572.1,311.4
	l-0.2,0.1V348c-4.1,3.6-7.9,5.1-12.3,5.1c-6.1,0-8.8-3.5-8.8-11.8v-30l-0.2-0.1c-4.1-1-8.4-1-12.6,0l-0.2,0.1v32.9
	c0,12.5,6.7,19.7,18.5,19.7c6.3,0,11.8-2.4,17.7-7.9l1.2,5.7l0.1,0.1c3,0.8,6.1,0.8,9.1,0l0.2-0.1v-50.5l-0.2-0.1
	C580.6,310.3,576.4,310.3,572.1,311.4L572.1,311.4z M624.4,352.1l-0.1-0.2l-0.2,0.1c-5,1.1-7.9,1.1-9.6-0.3
	c-1.4-1.1-2.1-3.1-2.1-6.3v-23.4h10.1l0.1-0.2c0.7-3.4,0.7-6.9,0-10.4l-0.1-0.2h-10.1v-13.9l-0.2-0.1c-4.1-0.9-8.4-0.9-12.5,0
	l-0.2,0.1l0.1,13.9h-6.4l-0.1,0.2c-0.8,3.4-0.8,7,0,10.4l0.1,0.2h6.4l0.1,22.5c0,6.3,0.4,12.6,4.7,16.3c2.4,1.9,5.8,2.9,10.2,2.9
	c2.7,0,5.9-0.4,9.5-1.1h0.1l0.1-0.1C625.2,359.1,625.3,355.6,624.4,352.1L624.4,352.1z"/>
<path class="st1" d="M32.1,335.3l34.7-34.7c4.5-4.4,7.3-10.6,7.3-17.4c0-6.7-2.7-12.9-7.1-17.3l-34.7,34.7C27.8,305,25,311.2,25,318
	S27.7,330.9,32.1,335.3z M116.1,315l-34.7,34.7c-4.5,4.4-7.3,10.6-7.3,17.4c0,6.7,2.7,12.9,7.1,17.3l34.7-34.7
	c4.5-4.4,7.3-10.6,7.3-17.4S120.5,319.4,116.1,315z M115.9,300.7c4.5-4.4,7.3-10.6,7.3-17.4c0-6.7-2.7-12.9-7.1-17.3l-83.9,83.8
	c-4.5,4.5-7.3,10.6-7.3,17.5c0,6.7,2.7,12.9,7.1,17.3L115.9,300.7z"/>
</svg>
