<svg width="110" height="110" viewBox="0 0 110 110" fill="none" xmlns="http://www.w3.org/2000/svg">
<path d="M64.1966 36.2681L60.1562 32.2277L75.8813 16.5026C77.6699 14.714 79.5554 13.6043 81.5379 13.1733C83.5204 12.7423 85.4867 12.8878 87.4368 13.6097C89.3654 14.3316 91.1485 15.5113 92.7862 17.149C94.4777 18.8405 95.6845 20.6506 96.4064 22.5793C97.1175 24.5186 97.2522 26.4742 96.8105 28.4459C96.3579 30.4068 95.2373 32.2815 93.4488 34.07L77.7238 49.7951L73.6834 45.7547L89.4085 30.0296C90.5398 28.8984 91.2778 27.7724 91.6225 26.6519C91.9566 25.5422 91.9405 24.4594 91.5741 23.4036C91.2078 22.3477 90.5398 21.3349 89.5701 20.3651C88.6004 19.3955 87.593 18.7329 86.5479 18.3773C85.492 18.011 84.4093 17.9948 83.2994 18.3288C82.1789 18.6736 81.0531 19.4116 79.9217 20.543L64.1966 36.2681Z" fill="#E3DAC9"/>
<path d="M45.8032 73.7323L49.8436 77.7725L34.1185 93.4976C32.3299 95.2862 30.4445 96.3959 28.462 96.8269C26.4796 97.2579 24.5133 97.1124 22.5631 96.3905C20.6345 95.6687 18.8513 94.4889 17.2136 92.8512C15.522 91.1597 14.3153 89.3496 13.5934 87.421C12.8824 85.4816 12.7477 83.526 13.1895 81.5543C13.642 79.5934 14.7625 77.7187 16.551 75.9302L32.2761 60.2051L36.3165 64.2455L20.5914 79.9706C19.46 81.1018 18.722 82.2278 18.3772 83.3483C18.0433 84.4581 18.0594 85.5409 18.4257 86.5968C18.7921 87.6527 19.46 88.6654 20.4298 89.6351C21.3994 90.6047 22.4069 91.2674 23.452 91.623C24.5079 91.9892 25.5907 92.0054 26.7004 91.6714C27.8209 91.3267 28.9468 90.5886 30.0781 89.4574L45.8032 73.7323Z" fill="#E3DAC9"/>
<path d="M37.6934 68.3874L67.1071 38.9736L71.006 42.8726L41.5923 72.2863L37.6934 68.3874Z" fill="#E3DAC9"/>
<path d="M73.6053 64.0687L77.6456 60.0283L93.3707 75.7534C95.1592 77.542 96.269 79.4274 96.6999 81.4099C97.1309 83.3923 96.9855 85.3586 96.2636 87.3088C95.5418 89.2374 94.362 91.0206 92.7243 92.6583C91.0327 94.3498 89.2226 95.5566 87.294 96.2784C85.3546 96.9895 83.3991 97.1242 81.4274 96.6824C79.4664 96.2299 77.5918 95.1094 75.8032 93.3209L60.0781 77.5958L64.1185 73.5554L79.8436 89.2805C80.9749 90.4118 82.1008 91.1499 83.2213 91.4946C84.331 91.8286 85.4139 91.8125 86.4698 91.4462C87.5257 91.0798 88.5384 90.4118 89.5082 89.4421C90.4778 88.4725 91.1404 87.465 91.496 86.4199C91.8623 85.364 91.8784 84.2812 91.5445 83.1715C91.1997 82.0509 90.4616 80.925 89.3303 79.7938L73.6053 64.0687Z" fill="#E3DAC9"/>
<path d="M36.141 45.6753L32.1007 49.7156L16.3756 33.9907C14.5871 32.2021 13.4772 30.3165 13.0464 28.3341C12.6154 26.3516 12.7608 24.3853 13.4827 22.4352C14.2045 20.5065 15.3843 18.7235 17.022 17.0858C18.7136 15.3942 20.5237 14.1875 22.4523 13.4656C24.3917 12.7545 26.3472 12.6198 28.3189 13.0615C30.2799 13.514 32.1545 14.6346 33.9431 16.4231L49.6682 32.1482L45.6278 36.1885L29.9027 20.4635C28.7715 19.3322 27.6455 18.5942 26.525 18.2493C25.4152 17.9153 24.3324 17.9315 23.2765 18.2979C22.2206 18.6641 21.2079 19.3322 20.2381 20.3019C19.2685 21.2715 18.6058 22.2789 18.2503 23.3241C17.884 24.3799 17.8679 25.4627 18.2019 26.5724C18.5466 27.693 19.2847 28.8189 20.4159 29.9503L36.141 45.6753Z" fill="#E3DAC9"/>
<path d="M41.4849 37.5654L70.8986 66.9793L66.9997 70.8782L37.5859 41.4643L41.4849 37.5654Z" fill="#E3DAC9"/>
</svg>
